<svg width="24" height="22" viewBox="0 0 24 22" fill="none" xmlns="http://www.w3.org/2000/svg">
<path d="M21.52 3.024C20.68 2.184 19.7 1.58667 18.58 1.232C17.46 0.877333 16.3213 0.793333 15.164 0.979999C14.0067 1.148 12.952 1.58667 12 2.296C10.992 1.512 9.86267 1.036 8.612 0.867999C7.38 0.681332 6.176 0.802666 5 1.232C3.84267 1.66133 2.844 2.36133 2.004 3.332C1.18267 4.284 0.641333 5.376 0.38 6.608C0.137333 7.84 0.193333 9.05333 0.548 10.248C0.921334 11.4427 1.56533 12.4787 2.48 13.356L9.732 20.608C10.1427 21.0187 10.6187 21.2893 11.16 21.42C11.72 21.5693 12.2707 21.5693 12.812 21.42C13.372 21.2893 13.8573 21.0187 14.268 20.608L21.52 13.356C22.4533 12.4227 23.0787 11.3307 23.396 10.08C23.732 8.82933 23.732 7.57867 23.396 6.328C23.0787 5.05867 22.4533 3.95733 21.52 3.024ZM19.868 11.732L12.644 18.984C12.476 19.152 12.2613 19.236 12 19.236C11.7573 19.236 11.552 19.152 11.384 18.984L4.132 11.704C3.516 11.0693 3.096 10.332 2.872 9.492C2.648 8.63333 2.648 7.784 2.872 6.944C3.096 6.08533 3.516 5.33867 4.132 4.704C4.76667 4.06933 5.504 3.64933 6.344 3.444C7.20267 3.22 8.052 3.22 8.892 3.444C9.75067 3.64933 10.4973 4.06933 11.132 4.704C11.356 4.928 11.6267 5.04 11.944 5.04C12.28 5.04 12.56 4.928 12.784 4.704C13.4187 4.06933 14.156 3.64933 14.996 3.444C15.8547 3.22 16.704 3.22 17.544 3.444C18.4027 3.64933 19.1493 4.06933 19.784 4.704C20.4187 5.33867 20.848 6.076 21.072 6.916C21.296 7.756 21.3053 8.60533 21.1 9.464C20.8947 10.304 20.484 11.0507 19.868 11.704V11.732Z" fill="#201F2E"/>
</svg>
